<?xml version="1.0" encoding="UTF-8"?>
<!DOCTYPE svg PUBLIC "-//W3C//DTD SVG 1.1//EN" "http://www.w3.org/Graphics/SVG/1.1/DTD/svg11.dtd">
<svg xmlns="http://www.w3.org/2000/svg" version="1.1" width="500px" height="500px" style="shape-rendering:geometricPrecision; text-rendering:geometricPrecision; image-rendering:optimizeQuality; fill-rule:evenodd; clip-rule:evenodd" xmlns:xlink="http://www.w3.org/1999/xlink">
<g><path style="opacity:0.502" fill="#fefefe" d="M -0.5,-0.5 C 166.167,-0.5 332.833,-0.5 499.5,-0.5C 499.5,166.167 499.5,332.833 499.5,499.5C 332.833,499.5 166.167,499.5 -0.5,499.5C -0.5,332.833 -0.5,166.167 -0.5,-0.5 Z"/></g>
<g><path style="opacity:1" fill="#347bbf" d="M 260.5,27.5 C 243.792,27.875 227.125,28.875 210.5,30.5C 227.041,26.9651 243.708,25.9651 260.5,27.5 Z"/></g>
<g><path style="opacity:1" fill="#0272cb" d="M 260.5,27.5 C 333.159,32.2345 390.659,63.9012 433,122.5C 456.098,156.626 468.931,194.292 471.5,235.5C 470.642,253.116 469.642,270.783 468.5,288.5C 455.299,356.16 419.299,407.66 360.5,443C 350.823,448.341 340.823,452.841 330.5,456.5C 325.342,457.489 320.176,458.489 315,459.5C 312.379,459.237 309.879,458.57 307.5,457.5C 305.431,457.785 304.098,458.952 303.5,461C 304.634,462.016 304.301,462.683 302.5,463C 286.003,464.37 269.67,466.203 253.5,468.5C 249.571,465.941 245.571,465.941 241.5,468.5C 238.853,467.45 236.353,466.117 234,464.5C 232.559,465.26 231.059,465.926 229.5,466.5C 223.551,465.708 217.551,465.208 211.5,465C 210.377,463.956 209.044,463.29 207.5,463C 201.546,463.121 195.879,462.121 190.5,460C 181.952,459.189 173.618,457.689 165.5,455.5C 99.3773,427.203 55.8773,378.536 35,309.5C 32.7014,301.975 31.2014,294.309 30.5,286.5C 28.9824,265.866 28.3157,245.199 28.5,224.5C 38.2549,152.442 73.5882,96.942 134.5,58C 158.291,44.5698 183.624,35.4031 210.5,30.5C 227.125,28.875 243.792,27.875 260.5,27.5 Z"/></g>
<g><path style="opacity:1" fill="#011b40" d="M 330.5,111.5 C 317.249,110.691 304.249,112.025 291.5,115.5C 296.093,113.07 301.093,111.57 306.5,111C 314.677,110.177 322.677,110.344 330.5,111.5 Z"/></g>
<g><path style="opacity:1" fill="#0a0d18" d="M 195.5,179.5 C 185.485,180.894 175.485,180.728 165.5,179C 164.748,178.329 164.414,177.496 164.5,176.5C 161.549,176.713 158.882,176.046 156.5,174.5C 153.393,171.96 151.56,168.627 151,164.5C 150.333,156.167 150.333,147.833 151,139.5C 153.872,129.14 160.706,123.64 171.5,123C 201.509,118.676 214.009,131.51 209,161.5C 208.573,170.735 204.073,176.735 195.5,179.5 Z"/></g>
<g><path style="opacity:1" fill="#f9faf9" d="M 164.5,176.5 C 158.141,173.621 154.641,168.621 154,161.5C 150.081,132.424 162.581,120.924 191.5,127C 198.848,128.091 203.348,132.257 205,139.5C 211.227,173.101 197.727,185.434 164.5,176.5 Z"/></g>
<g><path style="opacity:1" fill="#0d5696" d="M 366.5,155.5 C 350.995,156.323 335.329,156.989 319.5,157.5C 320.952,156.698 322.618,156.198 324.5,156C 338.496,155.5 352.496,155.333 366.5,155.5 Z"/></g>
<g><path style="opacity:1" fill="#1462a5" d="M 316.5,159.5 C 313.914,162.679 312.414,166.346 312,170.5C 311.5,182.495 311.333,194.495 311.5,206.5C 326.538,205.85 341.205,206.517 355.5,208.5C 340.167,208.5 324.833,208.5 309.5,208.5C 309.333,195.163 309.5,181.829 310,168.5C 310.264,163.922 312.431,160.922 316.5,159.5 Z"/></g>
<g><path style="opacity:1" fill="#031c3a" d="M 156.5,174.5 C 158.882,176.046 161.549,176.713 164.5,176.5C 164.414,177.496 164.748,178.329 165.5,179C 175.485,180.728 185.485,180.894 195.5,179.5C 194.737,180.268 193.737,180.768 192.5,181C 184.5,181.667 176.5,181.667 168.5,181C 163.712,180.109 159.712,177.942 156.5,174.5 Z"/></g>
<g><path style="opacity:1" fill="#1c5a8d" d="M 258.5,167.5 C 258.5,181.167 258.5,194.833 258.5,208.5C 251.5,208.5 244.5,208.5 237.5,208.5C 243.979,207.509 250.646,207.176 257.5,207.5C 257.171,193.99 257.504,180.656 258.5,167.5 Z"/></g>
<g><path style="opacity:1" fill="#02071e" d="M 259.5,165.5 C 259.833,180.182 259.499,194.848 258.5,209.5C 249.888,210.471 241.221,210.804 232.5,210.5C 233.78,209.069 235.447,208.402 237.5,208.5C 244.5,208.5 251.5,208.5 258.5,208.5C 258.5,194.833 258.5,181.167 258.5,167.5C 258.328,166.508 258.662,165.842 259.5,165.5 Z"/></g>
<g><path style="opacity:1" fill="#03040c" d="M 158.5,210.5 C 171.504,210.333 184.504,210.5 197.5,211C 199.058,211.21 200.391,211.71 201.5,212.5C 202.5,212.5 203.5,212.5 204.5,212.5C 204.826,273.208 204.492,333.875 203.5,394.5C 203.5,394.833 203.5,395.167 203.5,395.5C 188.458,396.803 173.458,396.803 158.5,395.5C 157.878,394.373 157.045,393.373 156,392.5C 155.333,332.5 155.333,272.5 156,212.5C 156.708,211.619 157.542,210.953 158.5,210.5 Z"/></g>
<g><path style="opacity:1" fill="#fafafa" d="M 201.5,212.5 C 202.662,272.43 202.829,332.43 202,392.5C 187.575,393.656 173.075,393.823 158.5,393C 157.336,333.237 157.169,273.404 158,213.5C 172.421,212.51 186.921,212.176 201.5,212.5 Z"/></g>
<g><path style="opacity:1" fill="#01051a" d="M 203.5,394.5 C 204.492,333.875 204.826,273.208 204.5,212.5C 203.5,212.5 202.5,212.5 201.5,212.5C 200.391,211.71 199.058,211.21 197.5,211C 184.504,210.5 171.504,210.333 158.5,210.5C 158.5,210.167 158.5,209.833 158.5,209.5C 172.661,208.339 186.994,208.173 201.5,209C 202.931,209.465 204.097,210.299 205,211.5C 205.667,272.167 205.667,332.833 205,393.5C 204.617,394.056 204.117,394.389 203.5,394.5 Z"/></g>
<g><path style="opacity:1" fill="#03467d" d="M 357.5,209.5 C 358.496,209.414 359.329,209.748 360,210.5C 360.827,223.673 360.66,236.673 359.5,249.5C 359.667,236.829 359.5,224.162 359,211.5C 358.283,210.956 357.783,210.289 357.5,209.5 Z"/></g>
<g><path style="opacity:1" fill="#001a3d" d="M 158.5,209.5 C 158.5,209.833 158.5,210.167 158.5,210.5C 157.542,210.953 156.708,211.619 156,212.5C 155.333,272.5 155.333,332.5 156,392.5C 157.045,393.373 157.878,394.373 158.5,395.5C 157.833,395.5 157.167,395.5 156.5,395.5C 156.217,394.711 155.717,394.044 155,393.5C 154.333,332.833 154.333,272.167 155,211.5C 155.816,210.177 156.983,209.511 158.5,209.5 Z"/></g>
<g><path style="opacity:1" fill="#2e76b5" d="M 28.5,224.5 C 28.3157,245.199 28.9824,265.866 30.5,286.5C 28.0147,273.263 26.6814,259.763 26.5,246C 26.4585,238.619 27.1252,231.453 28.5,224.5 Z"/></g>
<g><path style="opacity:1" fill="#000c29" d="M 357.5,251.5 C 357.167,252.167 356.833,252.833 356.5,253.5C 341.5,253.5 326.5,253.5 311.5,253.5C 326.705,252.803 342.038,252.137 357.5,251.5 Z"/></g>
<g><path style="opacity:1" fill="#0f1118" d="M 330.5,111.5 C 344.328,111.165 357.494,113.832 370,119.5C 371.613,129.066 371.947,138.733 371,148.5C 370.096,151.233 368.596,153.567 366.5,155.5C 352.496,155.333 338.496,155.5 324.5,156C 322.618,156.198 320.952,156.698 319.5,157.5C 317.973,157.427 316.973,158.094 316.5,159.5C 312.431,160.922 310.264,163.922 310,168.5C 309.5,181.829 309.333,195.163 309.5,208.5C 324.833,208.5 340.167,208.5 355.5,208.5C 355.842,209.338 356.508,209.672 357.5,209.5C 357.783,210.289 358.283,210.956 359,211.5C 359.5,224.162 359.667,236.829 359.5,249.5C 359.167,250.5 358.5,251.167 357.5,251.5C 342.038,252.137 326.705,252.803 311.5,253.5C 309.505,299.488 308.838,345.821 309.5,392.5C 308.657,394.173 307.324,395.34 305.5,396C 290.833,396.667 276.167,396.667 261.5,396C 260.299,395.097 259.465,393.931 259,392.5C 258.5,346.168 258.333,299.835 258.5,253.5C 250.493,253.666 242.493,253.5 234.5,253C 233,252.167 231.833,251 231,249.5C 230.333,236.833 230.333,224.167 231,211.5C 231.383,210.944 231.883,210.611 232.5,210.5C 241.221,210.804 249.888,210.471 258.5,209.5C 259.499,194.848 259.833,180.182 259.5,165.5C 260.149,154.238 262.982,143.571 268,133.5C 273.686,124.642 281.519,118.642 291.5,115.5C 304.249,112.025 317.249,110.691 330.5,111.5 Z"/></g>
<g><path style="opacity:1" fill="#c8c8c8" d="M 307.5,165.5 C 306.617,181.148 306.284,196.814 306.5,212.5C 305.339,199.006 305.173,185.34 306,171.5C 306.191,169.292 306.691,167.292 307.5,165.5 Z"/></g>
<g><path style="opacity:1" fill="#fdfdfd" d="M 307.5,165.5 C 306.691,167.292 306.191,169.292 306,171.5C 305.173,185.34 305.339,199.006 306.5,212.5C 323.167,212.5 339.833,212.5 356.5,212.5C 357.146,225.212 356.48,237.545 354.5,249.5C 338.5,249.5 322.5,249.5 306.5,249.5C 306.5,296.833 306.5,344.167 306.5,391.5C 291.912,392.483 277.245,392.816 262.5,392.5C 262.5,344.833 262.5,297.167 262.5,249.5C 252.917,249.818 243.417,249.485 234,248.5C 233.5,236.505 233.333,224.505 233.5,212.5C 243.167,212.5 252.833,212.5 262.5,212.5C 262.333,196.163 262.5,179.83 263,163.5C 264.332,136.509 278.165,120.343 304.5,115C 325.6,112.893 346.267,114.893 366.5,121C 367.126,121.75 367.626,122.584 368,123.5C 369.01,132.621 368.51,141.621 366.5,150.5C 351.144,151.12 335.811,151.953 320.5,153C 313.579,154.758 309.246,158.924 307.5,165.5 Z"/></g>
<g><path style="opacity:0.912" fill="#3276b2" d="M 471.5,235.5 C 473.276,253.305 472.276,270.972 468.5,288.5C 469.642,270.783 470.642,253.116 471.5,235.5 Z"/></g>
<g><path style="opacity:1" fill="#2a2b2b" d="M 354.5,249.5 C 339.009,250.496 323.342,250.83 307.5,250.5C 307.832,297.67 307.499,344.67 306.5,391.5C 306.5,344.167 306.5,296.833 306.5,249.5C 322.5,249.5 338.5,249.5 354.5,249.5 Z"/></g>
<g><path style="opacity:1" fill="#125ea0" d="M 311.5,253.5 C 326.5,253.5 341.5,253.5 356.5,253.5C 341.676,254.496 326.676,254.829 311.5,254.5C 311.667,298.168 311.5,341.835 311,385.5C 310.814,388.036 310.314,390.369 309.5,392.5C 308.838,345.821 309.505,299.488 311.5,253.5 Z"/></g>
<g><path style="opacity:1" fill="#8e8f8e" d="M 306.5,391.5 C 299.532,392.831 292.198,393.497 284.5,393.5C 276.992,393.5 269.659,393.166 262.5,392.5C 277.245,392.816 291.912,392.483 306.5,391.5 Z"/></g>
<g><path style="opacity:1" fill="#0d3e6b" d="M 156.5,395.5 C 157.167,395.5 157.833,395.5 158.5,395.5C 173.458,396.803 188.458,396.803 203.5,395.5C 203.082,396.222 202.416,396.722 201.5,397C 187.167,397.667 172.833,397.667 158.5,397C 157.584,396.722 156.918,396.222 156.5,395.5 Z"/></g>
<g><path style="opacity:1" fill="#1971b9" d="M 165.5,455.5 C 173.618,457.689 181.952,459.189 190.5,460C 195.879,462.121 201.546,463.121 207.5,463C 209.044,463.29 210.377,463.956 211.5,465C 217.551,465.208 223.551,465.708 229.5,466.5C 231.059,465.926 232.559,465.26 234,464.5C 236.353,466.117 238.853,467.45 241.5,468.5C 245.571,465.941 249.571,465.941 253.5,468.5C 269.67,466.203 286.003,464.37 302.5,463C 304.301,462.683 304.634,462.016 303.5,461C 304.098,458.952 305.431,457.785 307.5,457.5C 309.879,458.57 312.379,459.237 315,459.5C 320.176,458.489 325.342,457.489 330.5,456.5C 304.702,467.193 277.702,472.526 249.5,472.5C 220.117,472.957 192.117,467.29 165.5,455.5 Z"/></g>
</svg>
